# xmcd
#
# Track frame offsets: 
#        150
#        7727
#        16952
#        25876
#        31352
#        42302
#        66377
#        77442
#        89442
#        102942
#        112318
#        124842
#        132567
#        146067
#        159941
#        175991
#        185986
#        197181
#        210383
#        230106
#
# Disc length: 3313 seconds
#
# Revision: 0
# Processed by: cddbd v1.5.2PL0 Copyright (c) Steve Scherf et al.
# Submitted via: ExactAudioCopy v0.95b4
#
DISCID=1e0cef14
DTITLE=An alle Haushalte - Die fränkischen Strassenmusikanten
DYEAR=1900
DGENRE=
TTITLE0=Rhythmus-Schottisch (George Gershwin)
TTITLE1=Bratwurscht mit Sauerkraut
TTITLE2=Stachelschwein
TTITLE3=Prinz Eugen
TTITLE4=Leut´ Leut´
TTITLE5=Ich bin meinn Vadder sein Sohn
TTITLE6=Die wilde Katz
TTITLE7=Der Bubblmo
TTITLE8=Stau
TTITLE9=Wo ist denn des Gerchla
TTITLE10=Unter an Kerschbaam
TTITLE11=Mollländler mit vier L
TTITLE12=Männermission
TTITLE13=Tanga-Tango
TTITLE14=Bauernmädla-Rap
TTITLE15=Zipfelhaub´n
TTITLE16=Der braune Schorsch
TTITLE17=Schweizer Schottisch
TTITLE18=Die Krouha
TTITLE19=Stecker
EXTD=
EXTT0=
EXTT1=
EXTT2=
EXTT3=
EXTT4=
EXTT5=
EXTT6=
EXTT7=
EXTT8=
EXTT9=
EXTT10=
EXTT11=
EXTT12=
EXTT13=
EXTT14=
EXTT15=
EXTT16=
EXTT17=
EXTT18=
EXTT19=
PLAYORDER=
